HIERARCHY
ROOT Hips
{
  OFFSET 0 89.5177 0.535
  CHANNELS 6 Xposition Yposition Zposition Zrotation Xrotation Yrotation
  JOINT Spine
  {
    OFFSET 12.0259 -0.162855 1.69034e-005
    CHANNELS 3 Zrotation Xrotation Yrotation
    JOINT Spine1
    {
      OFFSET 15.3169 -0.0121922 0
      CHANNELS 3 Zrotation Xrotation Yrotation
      JOINT Spine2
      {
        OFFSET 15.3176 -0.0121908 0
        CHANNELS 3 Zrotation Xrotation Yrotation
        JOINT Neck
        {
          OFFSET 19.9142 1.56338 0
          CHANNELS 3 Zrotation Xrotation Yrotation
          JOINT Head
          {
            OFFSET 6.92651 0 0
            CHANNELS 3 Zrotation Xrotation Yrotation
            End Site
            {
              OFFSET 20.7666 0 0
            }
          }
          JOINT LeftShoulder
          {
            OFFSET -6.20654 0.708824 7.28219
            CHANNELS 3 Zrotation Xrotation Yrotation
            JOINT LeftArm
            {
              OFFSET 14.108 0 -1.52588e-005
              CHANNELS 3 Zrotation Xrotation Yrotation
              JOINT LeftForeArm
              {
                OFFSET 28.5802 0 0
                CHANNELS 3 Zrotation Xrotation Yrotation
                JOINT LeftHand
                {
                  OFFSET 27.092 0 0
                  CHANNELS 3 Zrotation Xrotation Yrotation
                  End Site
                  {
                    OFFSET 9.55928 -0.186424 0.145352
                  }
                }
              }
            }
          }
          JOINT RightShoulder
          {
            OFFSET -6.20654 0.708866 -7.28218
            CHANNELS 3 Zrotation Xrotation Yrotation
            JOINT RightArm
            {
              OFFSET 14.108 0 1.52588e-005
              CHANNELS 3 Zrotation Xrotation Yrotation
              JOINT RightForeArm
              {
                OFFSET 28.5802 0 0
                CHANNELS 3 Zrotation Xrotation Yrotation
                JOINT RightHand
                {
                  OFFSET 27.092 0 0
                  CHANNELS 3 Zrotation Xrotation Yrotation
                  End Site
                  {
                    OFFSET 9.55929 -0.186417 -0.145354
                  }
                }
              }
            }
          }
        }
      }
    }
  }
  JOINT LeftUpLeg
  {
    OFFSET 0.005 -0.535 8.837
    CHANNELS 3 Zrotation Xrotation Yrotation
    JOINT LeftLeg
    {
      OFFSET 39.9035 0 0
      CHANNELS 3 Zrotation Xrotation Yrotation
      JOINT LeftFoot
      {
        OFFSET 39.6689 0 0
        CHANNELS 3 Zrotation Xrotation Yrotation
        JOINT LeftToe
        {
          OFFSET 10.1624 13.6296 0
          CHANNELS 3 Zrotation Xrotation Yrotation
          End Site
          {
            OFFSET 8.38147 0 0
          }
        }
      }
    }
  }
  JOINT RightUpLeg
  {
    OFFSET 0.005 -0.535 -8.837
    CHANNELS 3 Zrotation Xrotation Yrotation
    JOINT RightLeg
    {
      OFFSET 39.9035 0 0
      CHANNELS 3 Zrotation Xrotation Yrotation
      JOINT RightFoot
      {
        OFFSET 39.6689 0 0
        CHANNELS 3 Zrotation Xrotation Yrotation
        JOINT RightToe
        {
          OFFSET 10.1624 13.6296 0
          CHANNELS 3 Zrotation Xrotation Yrotation
          End Site
          {
            OFFSET 8.38147 0 0
          }
        }
      }
    }
  }
}
MOTION
Frames:	14
Frame Time:	0.0333333
489.471 77.3718 -219.436 132.745 14.2174 -13.0303 6.48482 -0.274133 0.325935 12.9713 -0.509206 0.680845 12.9713 -0.509207 0.680835 -8.30828e-012 -9.0191e-006 -5.27751e-005 -32.6339 5.86929 -3.10846 -177.062 -15.4569 -79.1012 -55.0078 -41.1265 47.4447 -64.4504 0 -0 -74.6961 -59.8355 -84.75 -177.864 11.3151 79.2385 -56.4635 38.6212 -40.0538 -81.5673 -3.18055e-015 -6.36111e-015 -81.1042 53.0346 86.919 -81.1889 7.95836 -156.908 -50.7808 3.18055e-015 -7.95139e-016 13.5358 12.6942 -12.8918 90 4.96962e-017 6.36111e-015 -85.3421 -15.9368 163.271 -58.0555 0 -1.04362e-015 17.0286 -9.84113 1.66625 90 -1.2424e-017 -0 
489.255 77.4687 -219.532 132.535 14.6096 -13.2397 6.46431 -0.21107 0.347072 12.9299 -0.381229 0.715796 12.9299 -0.38123 0.715787 -8.30589e-012 -9.0191e-006 -5.27751e-005 -32.4059 5.44276 -3.10961 -177.03 -15.5489 -79.0462 -54.8264 -41.0677 47.5244 -64.1964 3.97569e-016 3.97569e-016 -74.1929 -59.8244 -84.1578 -177.863 11.3247 79.2393 -56.6473 38.2221 -40.0719 -81.2773 1.59028e-015 3.18055e-015 -81.1143 52.7844 86.943 -80.7119 7.91111 -156.997 -50.4345 0 -3.18055e-015 13.5534 12.9122 -12.985 90 -4.96962e-017 -6.36111e-015 -84.8413 -16.2404 163.125 -57.9483 -7.95139e-016 -3.97569e-016 17.1233 -9.74266 1.62719 90 0 -1.59028e-015 
489.05 77.5491 -219.644 132.351 14.9244 -13.4996 6.42994 -0.161921 0.377872 12.8609 -0.280012 0.771592 12.8609 -0.280013 0.771583 -8.31086e-012 -9.0191e-006 -5.27751e-005 -31.9293 5.21762 -3.15773 -177.014 -15.5585 -78.9958 -54.6202 -40.7904 47.4807 -63.8861 7.95139e-016 -0 -74.0667 -59.837 -84.0109 -177.867 11.2785 79.2175 -56.8284 37.7808 -40.086 -80.789 0 -9.54166e-015 -81.2205 52.7019 87.0803 -80.2617 7.68403 -157.064 -50.1063 6.36111e-015 6.75868e-015 13.4594 12.9994 -13.0985 90 4.96962e-017 6.36111e-015 -84.3536 -16.5302 163.096 -57.8374 7.95139e-016 2.48481e-016 17.2023 -9.61434 1.59835 90 -1.2424e-017 -0 
488.874 77.614 -219.745 132.237 15.2725 -13.7004 6.39504 -0.147024 0.391989 12.791 -0.24898 0.798007 12.791 -0.24898 0.797998 -8.30788e-012 -9.0191e-006 -5.27751e-005 -31.327 5.02649 -2.9953 -176.98 -15.6745 -78.9486 -54.6656 -40.4775 47.2727 -63.5574 7.95139e-016 1.19271e-015 -74.342 -59.8526 -84.336 -177.852 11.2294 79.0991 -57.1474 37.2293 -39.9432 -80.4082 -4.77083e-015 -6.36111e-015 -81.2822 52.4366 87.1698 -79.8074 7.3871 -157.284 -49.7372 -3.18055e-015 -2.78299e-015 13.2541 12.9929 -13.2125 90 -4.96962e-017 -6.36111e-015 -83.9746 -16.6744 163.029 -57.7779 3.97569e-016 -4.96962e-016 17.2569 -9.42109 1.58655 90 2.48481e-017 7.95139e-016 
488.732 77.6588 -219.843 132.235 15.6306 -13.8567 6.35525 -0.140451 0.396353 12.7114 -0.235673 0.80591 12.7114 -0.235674 0.805901 -8.30907e-012 -9.0191e-006 -5.27751e-005 -30.6261 4.82556 -2.92908 -176.975 -15.6814 -78.9375 -54.5421 -40.1617 47.1857 -63.4878 -3.97569e-016 3.97569e-016 -74.5304 -59.9296 -84.5485 -177.847 11.2262 79.0723 -57.2473 36.823 -39.9558 -80.3074 1.59028e-015 -3.18055e-015 -81.4524 52.317 87.3916 -79.4882 7.17477 -157.532 -49.4014 6.36111e-015 7.95139e-016 13.0979 13.0223 -13.3253 90 0 -6.36111e-015 -83.7575 -16.6971 162.931 -57.7793 -3.97569e-016 -0 17.2857 -9.18347 1.57614 90 -2.48481e-017 1.59028e-015 
488.594 77.7048 -219.939 132.241 15.9378 -14.0124 6.32155 -0.132394 0.405201 12.6439 -0.218875 0.822609 12.6439 -0.218876 0.822599 -8.3043e-012 -9.0191e-006 -5.27751e-005 -29.8547 4.72826 -2.9714 -176.941 -15.7029 -78.8285 -54.3677 -39.9093 47.2095 -63.5576 -3.97569e-016 -7.95139e-016 -74.4834 -60.0371 -84.4791 -177.85 11.2105 79.0697 -57.2821 36.4479 -39.9874 -80.4753 4.77083e-015 -3.18055e-015 -81.5823 52.1941 87.5619 -79.2837 7.11808 -157.65 -49.1346 3.18055e-015 -0 13.0755 13.1762 -13.4178 90 -4.96962e-017 -3.18055e-015 -83.5467 -16.7198 162.873 -57.7599 -3.97569e-016 9.93923e-017 17.3152 -8.97238 1.57257 90 0 -0 
488.434 77.7584 -220.042 132.183 16.1725 -14.2119 6.31233 -0.12589 0.422985 12.6255 -0.204017 0.85734 12.6255 -0.204018 0.857331 -8.30271e-012 -9.0191e-006 -5.27751e-005 -28.9899 4.78053 -3.03706 -176.903 -15.7313 -78.7133 -53.958 -39.8531 47.4331 -63.8864 -3.97569e-016 -5.96354e-016 -74.2823 -60.0534 -84.2358 -177.82 11.1991 78.9091 -57.7852 36.105 -39.5647 -80.6947 -1.59028e-015 -6.36111e-015 -81.5142 51.8785 87.489 -79.1005 7.10638 -157.605 -48.9199 0 -4.77083e-015 13.1279 13.408 -13.5065 90 0 3.18055e-015 -83.2354 -16.8683 162.902 -57.7023 -3.97569e-016 1.98785e-016 17.3806 -8.79201 1.54741 90 0 -7.95139e-016 
488.282 77.8107 -220.141 132.07 16.4904 -14.2931 6.32567 -0.144951 0.42087 12.6523 -0.242154 0.855241 12.6523 -0.242155 0.855232 -8.3043e-012 -9.0191e-006 -5.27751e-005 -27.9508 5.04056 -3.12361 -176.885 -15.6559 -78.5992 -53.4818 -39.8704 47.5834 -64.473 -7.95139e-016 9.93923e-017 -74.5173 -60.1306 -84.5005 -177.803 11.1817 78.809 -58.2728 35.9511 -39.0984 -81.1069 0 -3.18055e-015 -81.4439 51.7895 87.4023 -78.7703 7.12106 -157.701 -48.6303 -9.54166e-015 -3.57812e-015 13.0989 13.5654 -13.5951 90 -1.98785e-016 -6.36111e-015 -82.9646 -17.022 162.771 -57.7005 0 1.98785e-016 17.4779 -8.69385 1.49029 90 -3.10601e-018 7.95139e-016 
488.126 77.8753 -220.236 131.857 16.7337 -14.2722 6.36354 -0.140842 0.39849 12.7279 -0.236155 0.810228 12.7279 -0.236156 0.810219 -8.30788e-012 -9.0191e-006 -5.27751e-005 -27.0493 5.29994 -3.23373 -176.871 -15.6752 -78.5605 -53.0758 -40.2183 47.9222 -65.0217 3.97569e-016 -7.45443e-017 -73.9384 -60.075 -83.8209 -177.818 11.1875 78.8923 -58.4637 36.0751 -38.9392 -81.8821 1.59028e-015 6.36111e-015 -81.0937 51.7413 86.9554 -78.2686 7.09528 -157.798 -48.2684 -6.36111e-015 2.38542e-015 12.9602 13.5896 -13.6996 90 4.96962e-017 -6.36111e-015 -82.5937 -17.1294 162.71 -57.6607 0 -8.94531e-016 17.5734 -8.63905 1.43053 90 -3.10601e-018 -0 
487.982 77.9359 -220.319 131.745 16.9418 -14.3093 6.39067 -0.1448 0.384196 12.7822 -0.245444 0.782213 12.7822 -0.245445 0.782204 -8.31146e-012 -9.0191e-006 -5.27751e-005 -26.3082 5.41309 -3.43015 -176.853 -15.7328 -78.5371 -52.4911 -40.6359 48.4388 -65.8944 1.98785e-016 9.93923e-017 -72.9996 -59.9594 -82.7226 -177.818 11.1959 78.8958 -58.7648 36.1653 -38.651 -82.989 -3.18055e-015 -6.36111e-015 -80.8076 51.5856 86.5927 -77.8767 7.00071 -157.918 -47.9206 6.36111e-015 -3.18055e-015 12.7603 13.5608 -13.7778 90 0 -9.54166e-015 -82.3326 -17.2928 162.632 -57.6225 -7.95139e-016 -3.97569e-016 17.6973 -8.62449 1.37883 90 -9.31803e-018 -7.95139e-016 
487.861 77.9983 -220.403 131.763 17.1065 -14.4024 6.38576 -0.156689 0.388267 12.7725 -0.268728 0.791645 12.7725 -0.268729 0.791636 -8.30748e-012 -9.0191e-006 -5.27751e-005 -26.0275 5.56622 -3.58247 -176.866 -15.6837 -78.5495 -51.3722 -41.0343 49.3375 -67.1551 -2.98177e-016 -1.98785e-016 -72.2837 -59.9497 -81.8763 -177.812 11.2146 78.8842 -59.1873 36.0654 -38.2335 -84.3167 -4.77083e-015 -1.27222e-014 -80.4095 51.3633 86.0863 -77.6248 6.88506 -158.024 -47.5734 0 7.95139e-015 12.5766 13.5457 -13.8602 90 0 -0 -82.1556 -17.3657 162.643 -57.5224 7.95139e-016 -1.98785e-016 17.7015 -8.51139 1.344 90 0 1.59028e-015 
487.755 78.0581 -220.475 131.749 17.1653 -14.483 6.38491 -0.152106 0.382054 12.7592 -0.260271 0.779755 12.7592 -0.260272 0.779746 -8.30629e-012 -9.0191e-006 -5.27751e-005 -26.015 5.77739 -3.62274 -176.895 -15.6036 -78.598 -50.1687 -41.5767 50.2479 -68.2465 -1.2424e-016 -7.95139e-016 -71.3358 -60.0356 -80.7404 -177.807 11.2178 78.8626 -59.7034 35.8467 -37.7235 -85.7041 -1.59028e-015 -0 -79.9077 51.2553 85.4414 -77.4581 6.87785 -157.975 -47.3182 -3.18055e-015 -1.19271e-015 12.5036 13.6187 -13.9283 90 4.96962e-017 -0 -81.8727 -17.2539 162.864 -57.3423 7.95139e-016 -9.93923e-017 17.5538 -8.26999 1.35226 90 0 -0 
487.671 78.0996 -220.52 131.686 17.2438 -14.4979 6.38459 -0.150407 0.375189 12.768 -0.257673 0.764867 12.768 -0.257674 0.764858 -8.30191e-012 -9.0191e-006 -5.27751e-005 -25.8536 5.98837 -3.77819 -176.915 -15.5218 -78.6124 -49.1523 -42.1756 50.9663 -69.0627 9.93923e-017 -3.97569e-016 -70.6796 -60.1952 -79.9457 -177.801 11.1894 78.8078 -60.3379 35.5503 -37.1113 -86.9609 -3.18055e-015 -6.36111e-015 -79.5379 50.8725 84.9663 -77.2469 6.8695 -157.976 -47.1008 -3.18055e-015 2.38542e-015 12.4204 13.6648 -13.9894 90 -9.93923e-017 3.18055e-015 -81.5947 -17.0164 163.06 -57.2898 -3.97569e-016 -1.98785e-016 17.6279 -7.98037 1.41694 90 1.21329e-020 7.95139e-016 
487.588 78.1318 -220.567 131.641 17.2977 -14.4334 6.38444 -0.135312 0.374437 12.7696 -0.228162 0.752615 12.7696 -0.228163 0.752605 -8.30271e-012 -9.0191e-006 -5.27751e-005 -25.6274 6.19345 -4.01558 -176.949 -15.4295 -78.6708 -48.2343 -42.8031 51.703 -69.521 -7.95139e-016 -7.95139e-016 -70.0982 -60.375 -79.2403 -177.791 11.2007 78.7681 -60.9989 35.2839 -36.5073 -87.9478 1.59028e-015 3.18055e-015 -79.2088 50.6691 84.5389 -77.0165 6.88162 -158.001 -46.874 -9.54166e-015 -3.97569e-016 12.3416 13.6892 -14.0781 90 -9.93923e-017 -3.18055e-015 -81.3259 -16.5461 163.329 -57.284 0 -0 17.7261 -7.60632 1.52271 90 -2.42657e-020 7.95139e-016 
